<svg version="1.1" id="Layer_1" xmlns="http://www.w3.org/2000/svg" xmlns:xlink="http://www.w3.org/1999/xlink" x="0px" y="0px"
	 viewBox="0 0 1536 1536" style="enable-background:new 0 0 1536 1536;" xml:space="preserve">
<path d="M1536,663.3v209.5c0,57.8-46.9,104.7-104.7,104.7H977.5v453.8c0,57.8-46.9,104.7-104.7,104.7H663.3
	c-57.8,0-104.7-46.9-104.7-104.7V977.5H104.7C46.9,977.5,0,930.5,0,872.7V663.3c0-57.8,46.9-104.7,104.7-104.7h453.8V104.7
	C558.5,46.9,605.5,0,663.3,0h209.5c57.8,0,104.7,46.9,104.7,104.7v453.8h453.8C1489.1,558.5,1536,605.5,1536,663.3z"/>
</svg>
